<svg xmlns="http://www.w3.org/2000/svg" xmlns:xlink="http://www.w3.org/1999/xlink" width="500" zoomAndPan="magnify" viewBox="0 0 375 374.999991" height="500" preserveAspectRatio="xMidYMid meet" version="1.0"><defs><g/></defs><rect x="-37.5" width="450" fill="#ffffff" y="-37.499999" height="449.999989" fill-opacity="1"/><rect x="-37.5" width="450" fill="#ffffff" y="-37.499999" height="449.999989" fill-opacity="1"/><rect x="-37.5" width="450" fill="#f0f4f4" y="-37.499999" height="449.999989" fill-opacity="1"/><g fill="#2a4876" fill-opacity="1"><g transform="translate(43.700249, 185.010734)"><g><path d="M 0.988281 0 L 10.890625 0 C 20.953125 0 24.253906 -5.875 24.253906 -12.34375 C 24.253906 -22.96875 16.105469 -24.058594 11.746094 -24.058594 L 0.988281 -24.058594 L 0.988281 -23.628906 C 2.574219 -23.628906 3.265625 -23.363281 3.265625 -21.847656 L 3.265625 -2.210938 C 3.265625 -0.660156 2.574219 -0.429688 0.988281 -0.429688 Z M 10.59375 -0.429688 C 7.921875 -0.429688 6.898438 -0.691406 6.898438 -2.210938 L 6.898438 -21.878906 C 6.898438 -23.363281 8.050781 -23.628906 11.152344 -23.628906 C 16.597656 -23.628906 20.65625 -19.867188 20.65625 -12.34375 C 20.65625 -6.796875 18.875 -0.429688 10.59375 -0.429688 Z M 10.59375 -0.429688 "/></g></g></g><g fill="#2a4876" fill-opacity="1"><g transform="translate(72.443197, 185.010734)"><g><path d="M 0.988281 0 L 9.175781 0 L 9.175781 -0.429688 C 7.589844 -0.429688 6.898438 -0.691406 6.898438 -2.210938 L 6.898438 -12.175781 L 9.769531 -12.175781 L 15.542969 -3.796875 C 16.796875 -1.980469 18.316406 0 21.054688 0 L 24.320312 0 L 24.320312 -0.429688 C 23.066406 -0.429688 21.976562 -0.792969 20.988281 -2.210938 L 15.046875 -10.824219 C 14.554688 -10.429688 13.960938 -10.195312 13.332031 -10.195312 C 12.277344 -10.195312 11.121094 -10.824219 10.261719 -12.175781 L 11.648438 -12.175781 C 15.511719 -12.175781 20.328125 -13.003906 20.328125 -18.183594 C 20.328125 -23.464844 15.246094 -24.058594 10.363281 -24.058594 L 0.988281 -24.058594 L 0.988281 -23.628906 C 2.539062 -23.628906 3.265625 -23.398438 3.265625 -21.847656 L 3.265625 -2.210938 C 3.265625 -0.691406 2.539062 -0.429688 0.988281 -0.429688 Z M 6.898438 -12.605469 L 6.898438 -23.628906 L 11.023438 -23.628906 C 14.683594 -23.628906 16.730469 -21.714844 16.730469 -18.148438 C 16.730469 -13.726562 13.894531 -12.605469 10.394531 -12.605469 Z M 6.898438 -12.605469 "/></g></g></g><g fill="#2a4876" fill-opacity="1"><g transform="translate(99.932148, 185.010734)"><g><path d="M 1.648438 -1.453125 C 1.648438 -0.429688 2.476562 0.394531 3.496094 0.394531 C 4.519531 0.394531 5.347656 -0.429688 5.347656 -1.453125 C 5.347656 -2.476562 4.519531 -3.300781 3.496094 -3.300781 C 2.476562 -3.300781 1.648438 -2.476562 1.648438 -1.453125 Z M 1.648438 -1.453125 "/></g></g></g><g fill="#2a4876" fill-opacity="1"><g transform="translate(109.766141, 185.010734)"><g/></g></g><g fill="#2a4876" fill-opacity="1"><g transform="translate(121.84412, 185.010734)"><g><path d="M 0.496094 -24.058594 L 0.496094 -23.628906 C 2.277344 -23.628906 2.738281 -23.230469 3.464844 -21.679688 L 14.125 0.394531 L 14.617188 0 L 22.210938 -21.648438 C 22.738281 -23.230469 23.398438 -23.628906 25.246094 -23.628906 L 25.246094 -24.058594 L 19.867188 -24.058594 L 19.867188 -23.628906 C 21.945312 -23.628906 22.273438 -23.101562 21.78125 -21.679688 L 15.773438 -4.554688 L 7.359375 -21.945312 C 6.664062 -23.429688 7.425781 -23.660156 9.636719 -23.660156 L 9.636719 -24.058594 Z M 0.496094 -24.058594 "/></g></g></g><g fill="#2a4876" fill-opacity="1"><g transform="translate(150.422064, 185.010734)"><g><path d="M 5.644531 0 L 5.644531 -0.429688 C 4.257812 -0.429688 3.265625 -1.222656 3.859375 -2.640625 L 6.039062 -7.886719 L 15.542969 -7.886719 L 17.425781 -3.300781 C 18.085938 -1.714844 17.984375 -0.429688 16.269531 -0.429688 L 15.378906 -0.429688 L 15.378906 0 L 24.652344 0 L 24.652344 -0.429688 C 23 -0.429688 21.976562 -1.15625 21.054688 -3.332031 L 12.375 -24.058594 L 6.601562 -24.058594 L 6.601562 -23.628906 C 7.921875 -23.628906 9.109375 -23.296875 9.636719 -21.976562 L 10.558594 -19.734375 L 3.367188 -2.507812 C 2.871094 -1.320312 1.585938 -0.429688 0.496094 -0.429688 L 0.496094 0 Z M 10.789062 -19.238281 L 15.34375 -8.316406 L 6.238281 -8.316406 Z M 10.789062 -19.238281 "/></g></g></g><g fill="#2a4876" fill-opacity="1"><g transform="translate(178.406014, 185.010734)"><g><path d="M 0.988281 -23.628906 C 2.574219 -23.628906 3.265625 -23.363281 3.265625 -21.847656 L 3.265625 -1.847656 C 3.167969 -0.429688 2.441406 -0.429688 0.988281 -0.429688 L 0.988281 0 L 18.84375 0 L 21.1875 -9.472656 L 20.757812 -9.472656 C 19.238281 -4.421875 16.996094 -0.429688 11.351562 -0.429688 C 7.984375 -0.429688 6.929688 -0.59375 6.929688 -2.179688 L 6.929688 -21.847656 C 6.929688 -23.363281 7.621094 -23.628906 9.207031 -23.628906 L 9.207031 -24.058594 L 0.988281 -24.058594 Z M 0.988281 -23.628906 "/></g></g></g><g fill="#2a4876" fill-opacity="1"><g transform="translate(203.254969, 185.010734)"><g><path d="M 0.988281 0 L 18.84375 0 L 21.1875 -9.472656 L 20.757812 -9.472656 C 19.238281 -4.421875 16.996094 -0.429688 11.351562 -0.429688 C 7.984375 -0.429688 6.929688 -0.691406 6.929688 -2.210938 L 6.929688 -12.40625 L 10.726562 -12.40625 C 14.519531 -12.40625 14.519531 -10.328125 14.519531 -6.964844 L 14.949219 -6.964844 L 14.949219 -17.886719 L 14.519531 -17.886719 C 14.519531 -14.554688 14.289062 -12.871094 10.726562 -12.835938 L 6.929688 -12.835938 L 6.929688 -21.847656 C 6.929688 -23.398438 8.28125 -23.59375 13.035156 -23.59375 C 16.765625 -23.59375 18.148438 -22.605469 19.371094 -18.84375 L 19.800781 -18.84375 L 18.050781 -24.058594 L 0.988281 -24.058594 L 0.988281 -23.628906 C 2.574219 -23.628906 3.265625 -23.398438 3.265625 -21.847656 L 3.300781 -1.882812 C 3.167969 -0.660156 2.441406 -0.429688 0.988281 -0.429688 Z M 0.988281 0 "/></g></g></g><g fill="#2a4876" fill-opacity="1"><g transform="translate(228.136918, 185.010734)"><g><path d="M 0.824219 -24.058594 L 0.824219 -23.628906 C 2.308594 -23.628906 3.433594 -23.230469 4.222656 -21.910156 L 4.222656 -2.210938 C 4.222656 -0.460938 3.464844 -0.429688 1.882812 -0.429688 L 1.882812 0 L 6.996094 0 L 6.996094 -0.429688 C 5.445312 -0.429688 4.652344 -0.460938 4.652344 -2.210938 L 4.652344 -21.316406 L 19.933594 0 L 20.359375 0 L 20.328125 -22.011719 C 20.394531 -23.59375 21.152344 -23.628906 22.671875 -23.628906 L 22.671875 -24.058594 L 17.589844 -24.058594 L 17.589844 -23.628906 C 19.140625 -23.628906 19.898438 -23.59375 19.898438 -21.847656 L 19.933594 -6.238281 L 7.160156 -24.058594 Z M 0.824219 -24.058594 "/></g></g></g><g fill="#2a4876" fill-opacity="1"><g transform="translate(254.470882, 185.010734)"><g><path d="M 1.089844 -17.820312 C 1.914062 -22.242188 4.453125 -23.628906 7.984375 -23.628906 L 10.394531 -23.628906 L 10.394531 -2.210938 C 10.394531 -0.691406 9.703125 -0.429688 8.117188 -0.429688 L 8.117188 0 L 16.335938 0 L 16.335938 -0.429688 C 14.75 -0.429688 14.023438 -0.691406 14.023438 -2.210938 L 14.023438 -23.628906 L 16.402344 -23.628906 C 19.964844 -23.628906 22.507812 -22.242188 23.332031 -17.820312 L 23.761719 -17.820312 L 22.671875 -24.058594 L 1.75 -24.058594 L 0.660156 -17.820312 Z M 1.089844 -17.820312 "/></g></g></g><g fill="#2a4876" fill-opacity="1"><g transform="translate(281.72883, 185.010734)"><g><path d="M 3.265625 -2.210938 C 3.265625 -0.660156 2.574219 -0.429688 0.988281 -0.429688 L 0.988281 0 L 9.207031 0 L 9.175781 -0.429688 C 7.621094 -0.429688 6.898438 -0.660156 6.898438 -2.210938 L 6.898438 -21.847656 C 6.898438 -23.398438 7.621094 -23.628906 9.207031 -23.628906 L 9.207031 -24.058594 L 0.988281 -24.058594 L 0.988281 -23.628906 C 2.574219 -23.628906 3.265625 -23.398438 3.265625 -21.847656 Z M 3.265625 -2.210938 "/></g></g></g><g fill="#2a4876" fill-opacity="1"><g transform="translate(294.763809, 185.010734)"><g><path d="M 0.824219 -24.058594 L 0.824219 -23.628906 C 2.308594 -23.628906 3.433594 -23.230469 4.222656 -21.910156 L 4.222656 -2.210938 C 4.222656 -0.460938 3.464844 -0.429688 1.882812 -0.429688 L 1.882812 0 L 6.996094 0 L 6.996094 -0.429688 C 5.445312 -0.429688 4.652344 -0.460938 4.652344 -2.210938 L 4.652344 -21.316406 L 19.933594 0 L 20.359375 0 L 20.328125 -22.011719 C 20.394531 -23.59375 21.152344 -23.628906 22.671875 -23.628906 L 22.671875 -24.058594 L 17.589844 -24.058594 L 17.589844 -23.628906 C 19.140625 -23.628906 19.898438 -23.59375 19.898438 -21.847656 L 19.933594 -6.238281 L 7.160156 -24.058594 Z M 0.824219 -24.058594 "/></g></g></g><g fill="#2a4876" fill-opacity="1"><g transform="translate(321.097761, 185.010734)"><g><path d="M 3.265625 -2.210938 C 3.265625 -0.660156 2.574219 -0.429688 0.988281 -0.429688 L 0.988281 0 L 9.207031 0 L 9.175781 -0.429688 C 7.621094 -0.429688 6.898438 -0.660156 6.898438 -2.210938 L 6.898438 -21.847656 C 6.898438 -23.398438 7.621094 -23.628906 9.207031 -23.628906 L 9.207031 -24.058594 L 0.988281 -24.058594 L 0.988281 -23.628906 C 2.574219 -23.628906 3.265625 -23.398438 3.265625 -21.847656 Z M 3.265625 -2.210938 "/></g></g></g><g fill="#2a4876" fill-opacity="1"><g transform="translate(122.094503, 214.239243)"><g><path d="M 7.15625 -7.671875 L 4.15625 -7.671875 L 4.15625 0 L 3.1875 0 L 3.1875 -7.671875 L 0.1875 -7.671875 L 0.1875 -8.609375 L 7.15625 -8.609375 Z M 7.15625 -7.671875 "/></g></g></g><g fill="#2a4876" fill-opacity="1"><g transform="translate(131.491249, 214.239243)"><g><path d="M 2.03125 0 L 1.046875 0 L 1.046875 -8.609375 L 5.171875 -8.609375 C 6.046875 -8.609375 6.75 -8.363281 7.28125 -7.875 C 7.8125 -7.394531 8.078125 -6.742188 8.078125 -5.921875 C 8.078125 -4.835938 7.628906 -4.101562 6.734375 -3.71875 C 6.484375 -3.601562 6.238281 -3.519531 6 -3.46875 L 8.25 0 L 7.09375 0 L 5.015625 -3.296875 L 2.03125 -3.296875 Z M 2.03125 -4.21875 L 5 -4.21875 C 5.925781 -4.21875 6.5625 -4.503906 6.90625 -5.078125 C 7.03125 -5.296875 7.09375 -5.578125 7.09375 -5.921875 C 7.09375 -6.460938 6.90625 -6.890625 6.53125 -7.203125 C 6.164062 -7.523438 5.675781 -7.6875 5.0625 -7.6875 L 2.03125 -7.6875 Z M 2.03125 -4.21875 "/></g></g></g><g fill="#2a4876" fill-opacity="1"><g transform="translate(142.239588, 214.239243)"><g><path d="M 8.5625 0 L 7.484375 0 L 6.4375 -2.5 L 2.171875 -2.5 L 1.125 0 L 0.03125 0 L 3.6875 -8.609375 L 4.90625 -8.609375 Z M 6.0625 -3.390625 L 4.296875 -7.59375 L 2.546875 -3.390625 Z M 6.0625 -3.390625 "/></g></g></g><g fill="#2a4876" fill-opacity="1"><g transform="translate(152.896946, 214.239243)"><g><path d="M 8.265625 -8.609375 L 8.265625 -3.703125 C 8.265625 -2.554688 7.925781 -1.632812 7.25 -0.9375 C 6.570312 -0.238281 5.691406 0.109375 4.609375 0.109375 C 3.523438 0.109375 2.644531 -0.238281 1.96875 -0.9375 C 1.289062 -1.632812 0.953125 -2.554688 0.953125 -3.703125 L 0.953125 -8.609375 L 1.921875 -8.609375 L 1.921875 -3.671875 C 1.921875 -2.742188 2.195312 -2.023438 2.75 -1.515625 C 3.226562 -1.066406 3.847656 -0.84375 4.609375 -0.84375 C 5.359375 -0.84375 5.976562 -1.066406 6.46875 -1.515625 C 7.019531 -2.023438 7.296875 -2.742188 7.296875 -3.671875 L 7.296875 -8.609375 Z M 8.265625 -8.609375 "/></g></g></g><g fill="#2a4876" fill-opacity="1"><g transform="translate(164.165122, 214.239243)"><g><path d="M 9.421875 -8.609375 L 9.421875 0 L 8.453125 0 L 8.453125 -7.125 L 5.265625 -3.03125 L 2.03125 -7.125 L 2.03125 0 L 1.046875 0 L 1.046875 -8.609375 L 2.1875 -8.609375 L 5.265625 -4.53125 L 8.296875 -8.609375 Z M 9.421875 -8.609375 "/></g></g></g><g fill="#2a4876" fill-opacity="1"><g transform="translate(176.693907, 214.239243)"><g><path d="M 8.5625 0 L 7.484375 0 L 6.4375 -2.5 L 2.171875 -2.5 L 1.125 0 L 0.03125 0 L 3.6875 -8.609375 L 4.90625 -8.609375 Z M 6.0625 -3.390625 L 4.296875 -7.59375 L 2.546875 -3.390625 Z M 6.0625 -3.390625 "/></g></g></g><g fill="#2a4876" fill-opacity="1"><g transform="translate(187.351262, 214.239243)"><g><path d="M 7.15625 -7.671875 L 4.15625 -7.671875 L 4.15625 0 L 3.1875 0 L 3.1875 -7.671875 L 0.1875 -7.671875 L 0.1875 -8.609375 L 7.15625 -8.609375 Z M 7.15625 -7.671875 "/></g></g></g><g fill="#2a4876" fill-opacity="1"><g transform="translate(196.748005, 214.239243)"><g><path d="M 4.875 -8.703125 C 6.15625 -8.703125 7.207031 -8.273438 8.03125 -7.421875 C 8.84375 -6.585938 9.25 -5.546875 9.25 -4.296875 C 9.25 -3.054688 8.84375 -2.019531 8.03125 -1.1875 C 7.207031 -0.320312 6.15625 0.109375 4.875 0.109375 C 3.59375 0.109375 2.539062 -0.320312 1.71875 -1.1875 C 0.90625 -2.019531 0.5 -3.054688 0.5 -4.296875 C 0.5 -5.546875 0.90625 -6.585938 1.71875 -7.421875 C 2.539062 -8.273438 3.59375 -8.703125 4.875 -8.703125 Z M 4.875 -0.84375 C 5.894531 -0.84375 6.722656 -1.175781 7.359375 -1.84375 C 7.960938 -2.488281 8.265625 -3.304688 8.265625 -4.296875 C 8.265625 -5.296875 7.960938 -6.117188 7.359375 -6.765625 C 6.722656 -7.429688 5.894531 -7.765625 4.875 -7.765625 C 3.851562 -7.765625 3.023438 -7.429688 2.390625 -6.765625 C 1.785156 -6.117188 1.484375 -5.296875 1.484375 -4.296875 C 1.484375 -3.304688 1.785156 -2.488281 2.390625 -1.84375 C 3.023438 -1.175781 3.851562 -0.84375 4.875 -0.84375 Z M 4.875 -0.84375 "/></g></g></g><g fill="#2a4876" fill-opacity="1"><g transform="translate(208.549015, 214.239243)"><g><path d="M 2.03125 -8.609375 L 2.03125 -0.9375 L 6.71875 -0.9375 L 6.71875 0 L 1.046875 0 L 1.046875 -8.609375 Z M 2.03125 -8.609375 "/></g></g></g><g fill="#2a4876" fill-opacity="1"><g transform="translate(217.529891, 214.239243)"><g><path d="M 4.875 -8.703125 C 6.15625 -8.703125 7.207031 -8.273438 8.03125 -7.421875 C 8.84375 -6.585938 9.25 -5.546875 9.25 -4.296875 C 9.25 -3.054688 8.84375 -2.019531 8.03125 -1.1875 C 7.207031 -0.320312 6.15625 0.109375 4.875 0.109375 C 3.59375 0.109375 2.539062 -0.320312 1.71875 -1.1875 C 0.90625 -2.019531 0.5 -3.054688 0.5 -4.296875 C 0.5 -5.546875 0.90625 -6.585938 1.71875 -7.421875 C 2.539062 -8.273438 3.59375 -8.703125 4.875 -8.703125 Z M 4.875 -0.84375 C 5.894531 -0.84375 6.722656 -1.175781 7.359375 -1.84375 C 7.960938 -2.488281 8.265625 -3.304688 8.265625 -4.296875 C 8.265625 -5.296875 7.960938 -6.117188 7.359375 -6.765625 C 6.722656 -7.429688 5.894531 -7.765625 4.875 -7.765625 C 3.851562 -7.765625 3.023438 -7.429688 2.390625 -6.765625 C 1.785156 -6.117188 1.484375 -5.296875 1.484375 -4.296875 C 1.484375 -3.304688 1.785156 -2.488281 2.390625 -1.84375 C 3.023438 -1.175781 3.851562 -0.84375 4.875 -0.84375 Z M 4.875 -0.84375 "/></g></g></g><g fill="#2a4876" fill-opacity="1"><g transform="translate(229.3309, 214.239243)"><g><path d="M 1.65625 -7.421875 C 2.019531 -7.816406 2.460938 -8.128906 2.984375 -8.359375 C 3.503906 -8.585938 4.039062 -8.703125 4.59375 -8.703125 C 5.15625 -8.703125 5.640625 -8.640625 6.046875 -8.515625 C 6.453125 -8.398438 6.820312 -8.238281 7.15625 -8.03125 C 7.832031 -7.59375 8.332031 -7.003906 8.65625 -6.265625 L 7.59375 -6.265625 C 7.332031 -6.734375 6.96875 -7.097656 6.5 -7.359375 C 6.039062 -7.628906 5.515625 -7.765625 4.921875 -7.765625 C 4.335938 -7.765625 3.835938 -7.675781 3.421875 -7.5 C 3.003906 -7.320312 2.648438 -7.078125 2.359375 -6.765625 C 1.773438 -6.117188 1.484375 -5.296875 1.484375 -4.296875 C 1.484375 -3.296875 1.773438 -2.476562 2.359375 -1.84375 C 2.972656 -1.175781 3.785156 -0.84375 4.796875 -0.84375 C 5.609375 -0.84375 6.3125 -1.09375 6.90625 -1.59375 C 7.53125 -2.125 7.84375 -2.820312 7.84375 -3.6875 L 4.6875 -3.6875 L 4.6875 -4.578125 L 8.734375 -4.578125 L 8.734375 0 L 7.84375 0 L 7.84375 -1.515625 C 7.34375 -0.773438 6.65625 -0.28125 5.78125 -0.03125 C 5.457031 0.0625 5.035156 0.109375 4.515625 0.109375 C 3.992188 0.109375 3.472656 -0.00390625 2.953125 -0.234375 C 2.429688 -0.460938 1.988281 -0.78125 1.625 -1.1875 C 0.875 -2 0.5 -3.035156 0.5 -4.296875 C 0.5 -5.546875 0.882812 -6.585938 1.65625 -7.421875 Z M 1.65625 -7.421875 "/></g></g></g><g fill="#2a4876" fill-opacity="1"><g transform="translate(240.781022, 214.239243)"><g><path d="M 4.875 -8.703125 C 6.15625 -8.703125 7.207031 -8.273438 8.03125 -7.421875 C 8.84375 -6.585938 9.25 -5.546875 9.25 -4.296875 C 9.25 -3.054688 8.84375 -2.019531 8.03125 -1.1875 C 7.207031 -0.320312 6.15625 0.109375 4.875 0.109375 C 3.59375 0.109375 2.539062 -0.320312 1.71875 -1.1875 C 0.90625 -2.019531 0.5 -3.054688 0.5 -4.296875 C 0.5 -5.546875 0.90625 -6.585938 1.71875 -7.421875 C 2.539062 -8.273438 3.59375 -8.703125 4.875 -8.703125 Z M 4.875 -0.84375 C 5.894531 -0.84375 6.722656 -1.175781 7.359375 -1.84375 C 7.960938 -2.488281 8.265625 -3.304688 8.265625 -4.296875 C 8.265625 -5.296875 7.960938 -6.117188 7.359375 -6.765625 C 6.722656 -7.429688 5.894531 -7.765625 4.875 -7.765625 C 3.851562 -7.765625 3.023438 -7.429688 2.390625 -6.765625 C 1.785156 -6.117188 1.484375 -5.296875 1.484375 -4.296875 C 1.484375 -3.304688 1.785156 -2.488281 2.390625 -1.84375 C 3.023438 -1.175781 3.851562 -0.84375 4.875 -0.84375 Z M 4.875 -0.84375 "/></g></g></g><g fill="#2a4876" fill-opacity="1"><g transform="translate(142.227314, 232.239242)"><g><path d="M 4.6875 -8.609375 C 5.195312 -8.609375 5.6875 -8.507812 6.15625 -8.3125 C 6.632812 -8.113281 7.054688 -7.832031 7.421875 -7.46875 C 8.222656 -6.644531 8.625 -5.585938 8.625 -4.296875 C 8.625 -3.015625 8.222656 -1.960938 7.421875 -1.140625 C 7.054688 -0.765625 6.632812 -0.476562 6.15625 -0.28125 C 5.6875 -0.09375 5.195312 0 4.6875 0 L 1.046875 0 L 1.046875 -8.609375 Z M 4.640625 -0.921875 C 5.546875 -0.921875 6.28125 -1.253906 6.84375 -1.921875 C 7.382812 -2.566406 7.65625 -3.359375 7.65625 -4.296875 C 7.65625 -5.242188 7.382812 -6.039062 6.84375 -6.6875 C 6.28125 -7.351562 5.546875 -7.6875 4.640625 -7.6875 L 2.03125 -7.6875 L 2.03125 -0.921875 Z M 4.640625 -0.921875 "/></g></g></g><g fill="#2a4876" fill-opacity="1"><g transform="translate(153.43051, 232.239242)"><g><path d="M 2.03125 -7.671875 L 2.03125 -4.78125 L 6.8125 -4.78125 L 6.8125 -3.828125 L 2.03125 -3.828125 L 2.03125 -0.9375 L 7.390625 -0.9375 L 7.390625 0 L 1.046875 0 L 1.046875 -8.609375 L 7.390625 -8.609375 L 7.390625 -7.671875 Z M 2.03125 -7.671875 "/></g></g></g><g fill="#2a4876" fill-opacity="1"><g transform="translate(163.386094, 232.239242)"><g/></g></g><g fill="#2a4876" fill-opacity="1"><g transform="translate(168.208248, 232.239242)"><g><path d="M 4.890625 -0.84375 C 5.503906 -0.84375 6.039062 -1 6.5 -1.3125 C 6.96875 -1.625 7.316406 -2.046875 7.546875 -2.578125 L 8.5625 -2.578125 C 8.28125 -1.765625 7.8125 -1.125 7.15625 -0.65625 C 6.445312 -0.144531 5.617188 0.109375 4.671875 0.109375 C 3.410156 0.109375 2.390625 -0.320312 1.609375 -1.1875 C 0.867188 -2.007812 0.5 -3.046875 0.5 -4.296875 C 0.5 -5.554688 0.867188 -6.597656 1.609375 -7.421875 C 2.390625 -8.273438 3.410156 -8.703125 4.671875 -8.703125 C 5.617188 -8.703125 6.445312 -8.453125 7.15625 -7.953125 C 7.8125 -7.484375 8.28125 -6.84375 8.5625 -6.03125 L 7.546875 -6.03125 C 7.316406 -6.5625 6.96875 -6.984375 6.5 -7.296875 C 6.039062 -7.609375 5.503906 -7.765625 4.890625 -7.765625 C 4.273438 -7.765625 3.765625 -7.675781 3.359375 -7.5 C 2.953125 -7.320312 2.609375 -7.078125 2.328125 -6.765625 C 1.765625 -6.128906 1.484375 -5.304688 1.484375 -4.296875 C 1.484375 -3.296875 1.765625 -2.476562 2.328125 -1.84375 C 2.921875 -1.175781 3.773438 -0.84375 4.890625 -0.84375 Z M 4.890625 -0.84375 "/></g></g></g><g fill="#2a4876" fill-opacity="1"><g transform="translate(179.229494, 232.239242)"><g><path d="M 8.5625 0 L 7.484375 0 L 6.4375 -2.5 L 2.171875 -2.5 L 1.125 0 L 0.03125 0 L 3.6875 -8.609375 L 4.90625 -8.609375 Z M 6.0625 -3.390625 L 4.296875 -7.59375 L 2.546875 -3.390625 Z M 6.0625 -3.390625 "/></g></g></g><g fill="#2a4876" fill-opacity="1"><g transform="translate(189.886852, 232.239242)"><g><path d="M 4.6875 -8.609375 C 5.195312 -8.609375 5.6875 -8.507812 6.15625 -8.3125 C 6.632812 -8.113281 7.054688 -7.832031 7.421875 -7.46875 C 8.222656 -6.644531 8.625 -5.585938 8.625 -4.296875 C 8.625 -3.015625 8.222656 -1.960938 7.421875 -1.140625 C 7.054688 -0.765625 6.632812 -0.476562 6.15625 -0.28125 C 5.6875 -0.09375 5.195312 0 4.6875 0 L 1.046875 0 L 1.046875 -8.609375 Z M 4.640625 -0.921875 C 5.546875 -0.921875 6.28125 -1.253906 6.84375 -1.921875 C 7.382812 -2.566406 7.65625 -3.359375 7.65625 -4.296875 C 7.65625 -5.242188 7.382812 -6.039062 6.84375 -6.6875 C 6.28125 -7.351562 5.546875 -7.6875 4.640625 -7.6875 L 2.03125 -7.6875 L 2.03125 -0.921875 Z M 4.640625 -0.921875 "/></g></g></g><g fill="#2a4876" fill-opacity="1"><g transform="translate(201.090048, 232.239242)"><g><path d="M 2.03125 -7.671875 L 2.03125 -4.78125 L 6.8125 -4.78125 L 6.8125 -3.828125 L 2.03125 -3.828125 L 2.03125 -0.9375 L 7.390625 -0.9375 L 7.390625 0 L 1.046875 0 L 1.046875 -8.609375 L 7.390625 -8.609375 L 7.390625 -7.671875 Z M 2.03125 -7.671875 "/></g></g></g><g fill="#2a4876" fill-opacity="1"><g transform="translate(211.045635, 232.239242)"><g><path d="M 2.03125 0 L 1.046875 0 L 1.046875 -8.609375 L 5.171875 -8.609375 C 6.046875 -8.609375 6.75 -8.363281 7.28125 -7.875 C 7.8125 -7.394531 8.078125 -6.742188 8.078125 -5.921875 C 8.078125 -4.835938 7.628906 -4.101562 6.734375 -3.71875 C 6.484375 -3.601562 6.238281 -3.519531 6 -3.46875 L 8.25 0 L 7.09375 0 L 5.015625 -3.296875 L 2.03125 -3.296875 Z M 2.03125 -4.21875 L 5 -4.21875 C 5.925781 -4.21875 6.5625 -4.503906 6.90625 -5.078125 C 7.03125 -5.296875 7.09375 -5.578125 7.09375 -5.921875 C 7.09375 -6.460938 6.90625 -6.890625 6.53125 -7.203125 C 6.164062 -7.523438 5.675781 -7.6875 5.0625 -7.6875 L 2.03125 -7.6875 Z M 2.03125 -4.21875 "/></g></g></g><g fill="#2a4876" fill-opacity="1"><g transform="translate(221.793971, 232.239242)"><g><path d="M 8.5625 0 L 7.484375 0 L 6.4375 -2.5 L 2.171875 -2.5 L 1.125 0 L 0.03125 0 L 3.6875 -8.609375 L 4.90625 -8.609375 Z M 6.0625 -3.390625 L 4.296875 -7.59375 L 2.546875 -3.390625 Z M 6.0625 -3.390625 "/></g></g></g><path stroke-linecap="round" transform="matrix(0.74939, 0, 0, 0.75, 40.879245, 209.789254)" fill="none" stroke-linejoin="miter" d="M 0.499955 0.499744 L 95.587699 0.499744 " stroke="#2a4876" stroke-width="1" stroke-opacity="1" stroke-miterlimit="4"/><path stroke-linecap="round" transform="matrix(0.74939, 0, 0, 0.75, 258.187838, 209.789254)" fill="none" stroke-linejoin="miter" d="M 0.499956 0.499744 L 95.5877 0.499744 " stroke="#2a4876" stroke-width="1" stroke-opacity="1" stroke-miterlimit="4"/></svg>